<svg width="450" height="500" viewBox="0 0 450 500" fill="none" xmlns="http://www.w3.org/2000/svg">
<rect width="450" height="500" transform="matrix(-1 0 0 -1 450 500)" fill="white"/>
<rect width="450" height="500" transform="matrix(-1 0 0 -1 450 500)" fill="black"/>
<rect width="400" height="190" transform="translate(25 25)" fill="white"/>
<path d="M 117.0 159.0 L 117.0 81.0" fill="none" stroke="black" stroke-width="12" stroke-linecap="round" stroke-linejoin="round"/>
<path d="M 211.5 81.0 L 166.5 81.0 L 166.5 120.0 L 166.5 159.0 L 211.5 159.0 L 211.5 120.0 L 166.5 120.0" fill="none" stroke="black" stroke-width="12" stroke-linecap="round" stroke-linejoin="round"/>
<path d="M 238.5 81.0 L 283.5 81.0 L 283.5 120.0 L 283.5 159.0 L 238.5 159.0 L 238.5 120.0 L 238.5 81.0" fill="none" stroke="black" stroke-width="12" stroke-linecap="round" stroke-linejoin="round"/>
<path d="M 310.5 81.0 L 355.5 81.0 L 355.5 120.0 L 355.5 159.0 L 310.5 159.0 L 310.5 120.0 L 310.5 81.0" fill="none" stroke="black" stroke-width="12" stroke-linecap="round" stroke-linejoin="round"/>
<path d="M425 215L25 215L225 475L425 215Z" fill="white"/>

</svg>
